<svg width="46" height="25" viewBox="0 0 46 25" fill="none" xmlns="http://www.w3.org/2000/svg">
<path d="M37.7434 0C32.2122 0 30.1059 4.51614 30.0403 7.55152V12.4586C30.0293 12.6801 29.9418 13.3142 29.6464 13.8348C29.3856 14.2942 28.9771 14.7211 27.7735 14.7211C26.579 14.7211 26.1796 14.3014 25.9243 13.8475C25.6325 13.3268 25.5486 12.6873 25.5413 12.473V7.58935C25.5195 4.53956 23.4587 0 17.8729 0C12.329 0 10.1881 4.52515 10.1005 7.56773C10.1005 7.59295 10.0987 7.61817 10.0987 7.64519V17.4143C10.0932 17.6214 10.0166 18.2483 9.73397 18.7563C9.49143 19.1922 9.10664 19.594 7.93768 19.594C6.73955 19.594 6.32193 19.1508 6.07027 18.7167C5.76754 18.1925 5.63806 17.589 5.62895 17.3854C5.49947 16.0272 4.34328 14.9661 2.93542 14.9661C1.50203 14.9661 0.292957 16.0686 0.199951 17.4629C0.243719 20.4911 2.34091 24.9982 7.93768 24.9982C10.6914 24.9982 12.3947 23.8777 13.3411 22.9374C15.5022 20.7865 15.5715 17.8196 15.5715 17.4197V7.71004C15.5806 7.61277 15.6517 6.98588 15.949 6.41843C16.2225 5.89062 16.6456 5.40424 17.8729 5.40424C19.0309 5.40424 19.4267 5.82036 19.6801 6.27252C19.9719 6.79132 20.0595 7.42722 20.0704 7.6488V12.5C20.0704 15.566 22.122 20.1272 27.7735 20.1272C33.4104 20.1272 35.4893 15.5786 35.5112 12.5198V7.67402C35.5276 7.43983 35.6261 6.81114 35.9234 6.29233C36.1878 5.83117 36.5908 5.40604 37.7434 5.40604C38.8704 5.40604 39.2497 5.81316 39.4922 6.2545C39.7804 6.77871 39.8606 7.42002 39.8697 7.63619V22.2979C39.8697 23.7894 41.0952 25 42.6052 25C44.1152 25 45.3407 23.7894 45.3407 22.2979V7.60917C45.3407 4.55037 43.3164 0 37.7434 0V0Z" fill="#AD906E"/>
</svg>
