<svg width="130" height="70" viewBox="0 0 130 70" fill="none" xmlns="http://www.w3.org/2000/svg">
<g opacity="0.88">
<g clip-path="url(#clip0_572_1284)">
<path d="M30.6647 26.1531V32.7296H36.0941C38.6941 32.7296 40.0706 31.5825 40.0706 29.4413C40.0706 27.3002 38.6941 26.1531 35.8647 26.1531H30.6647ZM27.8353 23.7061H36.6294C40.3765 23.7061 43.1294 26.0766 43.1294 29.3649C43.1294 32.3472 41.6 33.8766 38.7706 34.6413L43.9706 44.3531H40.9118L35.8647 35.1766H30.6647V44.5061H27.8353V23.7061ZM46.5706 23.7061H59.4942L58.7294 26.1531H49.4V32.5002H57.9647V34.9472H49.4V41.9061H58.7294L59.5706 44.3531H46.5706V23.7061ZM61.8647 23.7061H64.6941V44.4296H61.8647V23.7061Z" fill="white"/>
<path d="M67.7529 23.7062H71.5765L80.7529 39.8415V23.7062H83.5823V44.4297H80.2176L70.5823 27.5297V44.4297H67.7529V23.7062ZM85.647 39.6885C86.1059 41.1415 86.4118 41.6768 87.0235 42.4415C88.5529 44.2003 90.9235 45.1944 93.8294 45.1944C98.8 45.1944 102.012 42.518 102.012 38.5415C102.012 33.8003 97.6529 32.6533 94.4412 31.8885C92.4529 31.4297 89.4706 30.665 89.4706 28.7533C89.4706 26.918 91.1529 25.7709 93.9059 25.7709C98.0353 25.7709 98.8765 28.2944 99.3353 29.5944L101.476 27.6062C100.941 26.4591 99.6412 23.1709 94.2118 23.1709C89.7 23.1709 86.6412 25.3885 86.6412 28.7533C86.6412 30.1297 87.1 31.2768 88.247 32.4238C90.0059 33.8768 90.6176 34.1062 93.8294 34.8709C97.8059 35.7885 99.1059 36.8591 99.1059 38.8474C99.1059 40.9885 97.0412 42.6709 94.5176 42.6709C92.7588 42.6709 91.2294 42.2121 90.1588 41.2944C89.0882 40.4533 88.5529 39.4591 88.1706 37.7768L85.647 39.6885ZM110.194 40.5297L105.376 23.7062H102.624L108.665 44.4297H111.724L116.388 27.3768L120.976 44.4297H124.035L130 23.7062H127.247L122.276 40.5297L117.765 23.7062H114.859L110.194 40.5297Z" fill="white"/>
<path d="M18.7353 17.5116C18.7353 18.1999 18.2 18.7351 17.5117 18.7351C16.8235 18.7351 16.2882 18.1999 16.2882 17.5116C16.2882 16.8234 16.8235 16.2881 17.5117 16.2881C18.2 16.2881 18.7353 16.8234 18.7353 17.5116Z" fill="white"/>
<path d="M9.02353 9.02353C6.34706 11.7 3.28824 13.6882 0 15.1412C3.59412 15.7529 7.87647 14.3765 11.1647 11.0882C14.4529 7.8 15.8294 3.51765 15.1412 0C13.7647 3.28824 11.7 6.34706 9.02353 9.02353Z" fill="white"/>
<path d="M21.3353 21.3356C24.0118 18.6591 27.0706 16.5944 30.3589 15.1415C26.7648 14.5297 22.4824 15.9062 19.1942 19.1944C15.9059 22.4826 14.5295 26.765 15.2177 30.2826C16.5942 27.0709 18.6589 24.012 21.3353 21.3356Z" fill="white"/>
<path d="M21.3353 9.02353C24.0118 11.7 27.0706 13.7647 30.3589 15.2176C26.7648 15.8294 22.4824 14.4529 19.1942 11.1647C15.9059 7.87647 14.5295 3.59412 15.2177 0C16.5942 3.28824 18.6589 6.34706 21.3353 9.02353Z" fill="white"/>
<path d="M9.02353 21.3356C6.34706 18.6591 3.28824 16.6709 0 15.1415C3.59412 14.5297 7.87647 15.9062 11.1647 19.1944C14.4529 22.4826 15.8294 26.765 15.1412 30.2826C13.7647 27.0709 11.7 24.012 9.02353 21.3356Z" fill="white"/>
<path d="M129.541 53.0703H27.8353V69.8174H129.541V53.0703Z" fill="white"/>
<path d="M42.6705 57.4297H44.5058L46.5705 60.7179L48.6352 57.4297H50.4705V65.2297H48.7882V60.1826L46.5705 63.4709L44.3529 60.1826V65.2297H42.6705V57.4297Z" fill="black"/>
<path d="M57.5059 57.4297H63.3941V58.9591H59.1882V60.565H62.8588V62.0944H59.1882V63.7003H63.3941V65.2297H57.5059V57.4297Z" fill="black"/>
<path d="M70.047 57.4297H71.9588L74.0235 60.7179L76.0117 57.4297H77.9235V65.2297H76.1646V60.1826L74.0235 63.4709H73.947L71.8058 60.1826V65.2297H70.047V57.4297Z" fill="black"/>
<path d="M84.8823 57.4297H88.4764C89.3941 57.4297 90.0823 57.6591 90.5411 58.1179C90.9235 58.5003 91.0764 58.8826 91.0764 59.4179C91.0764 60.3356 90.6176 60.7944 90.0823 61.1003C91 61.4826 91.5353 61.9415 91.5353 63.012C91.5353 64.465 90.3882 65.1532 88.6294 65.1532H84.8823V57.4297ZM89.3941 59.7238C89.3941 59.1885 89.0117 58.9591 88.247 58.9591H86.5647V60.6415H88.1706C88.9353 60.565 89.3941 60.3356 89.3941 59.7238ZM88.5529 62.0179H86.5647V63.7003H88.6294C89.3941 63.7003 89.8529 63.4709 89.8529 62.8591C89.8529 62.3238 89.3941 62.0179 88.5529 62.0179Z" fill="black"/>
<path d="M98.0353 57.4297H103.924V58.9591H99.7941V60.565H103.465V62.0944H99.7941V63.7003H104V65.2297H98.0353V57.4297Z" fill="black"/>
<path d="M110.653 57.4297H114.247C115.241 57.4297 116.006 57.7356 116.541 58.1944C117 58.6532 117.229 59.265 117.229 59.9532C117.229 61.1767 116.541 62.0179 115.547 62.4003L117.459 65.1532H115.471L113.788 62.6297H112.412V65.1532H110.729V57.4297H110.653ZM114.094 61.2532C114.935 61.2532 115.394 60.7944 115.394 60.1826C115.394 59.4179 114.859 59.0356 114.018 59.0356H112.412V61.2532H114.094Z" fill="black"/>
</g>
</g>
<defs>
<clipPath id="clip0_572_1284">
<rect width="130" height="69.7412" fill="white"/>
</clipPath>
</defs>
</svg>
